<svg id="gameBlock_background" data-name="Слой 1" xmlns="http://www.w3.org/2000/svg" xmlns:xlink="http://www.w3.org/1999/xlink" viewBox="0 0 63.78 63.78"><defs><style>.a80ce6a3-d51b-435b-af24-3e7c90456425{fill:url(#a30d7d75-209a-4c73-8f12-34a31c585a7d);}.bf859de9-35b9-4c46-9f4d-c9bf28597d0a{fill:url(#b077d9e9-5aae-48c9-93df-a736034d5925);}.b00f51c7-00af-4bc5-8d31-b9ea82cfc584{fill:url(#e683e81f-821f-46b1-a2b4-a4b8013da6c2);}.e3da92d8-70d5-4ad5-8670-6c4d8445bb46{fill:url(#a56e6f29-18a4-44e6-95f6-287cd3045f99);}</style><linearGradient id="a30d7d75-209a-4c73-8f12-34a31c585a7d" x1="31.89" y1="63.78" x2="31.89" gradientUnits="userSpaceOnUse"><stop offset="0" stop-color="#ff7d32"/><stop offset="1" stop-color="#ffc832"/></linearGradient><linearGradient id="b077d9e9-5aae-48c9-93df-a736034d5925" x1="136.56" y1="118.56" x2="196.52" y2="58.6" gradientUnits="userSpaceOnUse"><stop offset="0" stop-color="#d74b32"/><stop offset="0.45" stop-color="#d74b32"/><stop offset="0.55" stop-color="#ffff96"/><stop offset="1" stop-color="#ffff96"/></linearGradient><linearGradient id="e683e81f-821f-46b1-a2b4-a4b8013da6c2" x1="49.19" y1="14.59" x2="14.59" y2="49.19" xlink:href="#a30d7d75-209a-4c73-8f12-34a31c585a7d"/><linearGradient id="a56e6f29-18a4-44e6-95f6-287cd3045f99" x1="159.94" y1="113.18" x2="173.13" y2="63.98" gradientUnits="userSpaceOnUse"><stop offset="0" stop-color="#ff7837"/><stop offset="1" stop-color="#ffc832"/></linearGradient></defs><title>gameBlock_background</title><rect class="a80ce6a3-d51b-435b-af24-3e7c90456425" width="63.78" height="63.78" rx="6.52"/><path class="bf859de9-35b9-4c46-9f4d-c9bf28597d0a" d="M191.91,58.19a5,5,0,0,1,5,5V114a5,5,0,0,1-5,5H141.17a5,5,0,0,1-5-5V63.21a5,5,0,0,1,5-5h50.74m0-1.5H141.17a6.51,6.51,0,0,0-6.52,6.52V114a6.51,6.51,0,0,0,6.52,6.52h50.74a6.52,6.52,0,0,0,6.52-6.52V63.21a6.52,6.52,0,0,0-6.52-6.52Z" transform="translate(-134.65 -56.69)"/><circle class="b00f51c7-00af-4bc5-8d31-b9ea82cfc584" cx="31.89" cy="31.89" r="24.46"/><path class="e3da92d8-70d5-4ad5-8670-6c4d8445bb46" d="M166.54,64.12a24.47,24.47,0,1,1-24.47,24.46,24.46,24.46,0,0,1,24.47-24.46m0-1A25.47,25.47,0,1,0,192,88.58a25.49,25.49,0,0,0-25.46-25.46Z" transform="translate(-134.65 -56.69)"/></svg>