<svg xmlns="http://www.w3.org/2000/svg" xmlns:xlink="http://www.w3.org/1999/xlink" viewBox="0 0 63.78 63.78"><defs><linearGradient id="a" x1="31.89" x2="31.89" y1="63.78" gradientUnits="userSpaceOnUse"><stop offset="0" stop-color="#ff7d32"/><stop offset="1" stop-color="#ffc832"/></linearGradient><linearGradient id="b" x1="136.56" x2="196.52" y1="118.56" y2="58.6" gradientUnits="userSpaceOnUse"><stop offset="0" stop-color="#d74b32"/><stop offset=".45" stop-color="#d74b32"/><stop offset=".55" stop-color="#ffff96"/><stop offset="1" stop-color="#ffff96"/></linearGradient><linearGradient xlink:href="#a" id="c" x1="49.19" x2="14.59" y1="14.59" y2="49.19"/><linearGradient id="d" x1="159.94" x2="173.13" y1="113.18" y2="63.98" gradientUnits="userSpaceOnUse"><stop offset="0" stop-color="#ff7837"/><stop offset="1" stop-color="#ffc832"/></linearGradient></defs><rect width="63.78" height="63.78" rx="6.52" style="fill:url(#a)"/><path d="M191.91 58.19a5 5 0 0 1 5 5V114a5 5 0 0 1-5 5h-50.74a5 5 0 0 1-5-5V63.21a5 5 0 0 1 5-5h50.74m0-1.5h-50.74a6.51 6.51 0 0 0-6.52 6.52V114a6.51 6.51 0 0 0 6.52 6.52h50.74a6.52 6.52 0 0 0 6.52-6.52V63.21a6.52 6.52 0 0 0-6.52-6.52Z" style="fill:url(#b)" transform="translate(-134.65 -56.69)"/><circle cx="31.89" cy="31.89" r="24.46" style="fill:url(#c)"/><path d="M166.54 64.12a24.47 24.47 0 1 1-24.47 24.46 24.46 24.46 0 0 1 24.47-24.46m0-1A25.47 25.47 0 1 0 192 88.58a25.49 25.49 0 0 0-25.46-25.46Z" style="fill:url(#d)" transform="translate(-134.65 -56.69)"/></svg>